<svg xmlns="http://www.w3.org/2000/svg" viewBox="0 0 512 512" role="img" aria-labelledby="title desc">
  <title id="title">Offside Club logo</title>
  <desc id="desc">Stylized football hand logo for Offside Club on a dark background.</desc>
  <rect width="512" height="512" fill="#050807"/>
  <g transform="translate(76 34)">
    <rect x="18" y="12" width="28" height="164" rx="14" fill="#12d8cf"/>
    <rect x="74" y="0" width="28" height="128" rx="14" fill="#12d8cf"/>
    <rect x="130" y="-14" width="28" height="92" rx="14" fill="#12d8cf"/>
    <rect x="186" y="0" width="28" height="128" rx="14" fill="#12d8cf"/>
    <rect x="242" y="12" width="28" height="164" rx="14" fill="#12d8cf"/>
    <path d="M35 189c0-87 70-157 157-157s157 70 157 157-70 157-157 157S35 276 35 189Z" fill="#16d8cf"/>
    <path d="M85 121 160 92l62 47-36 73H108L85 121Z" fill="#d8faf7"/>
    <path d="M84 121 50 171l16 86 42 33 38-78-38-91Z" fill="#f4fffe"/>
    <path d="M186 212 148 290l91 31 54-65-5-62-102 18Z" fill="#2ce0d7"/>
    <path d="M222 139 160 92l110-9 39 56-21 55-66-55Z" fill="#78efe7"/>
    <path d="M50 171 16 145 42 110 85 121 50 171Z" fill="#0fc4bb"/>
    <path d="M293 256 343 274 320 319 239 321 293 256Z" fill="#12cfc7"/>
    <path d="M270 83 312 52 351 77 309 139 270 83Z" fill="#10cfc6"/>
    <path d="M42 110 31 64l58-26 71 54-75 29-43-11Z" fill="#101414"/>
    <path d="M85 121 50 171 84 121Zm75-29 62 47-36 73 102-18 21-55-39-56-110 9Zm-52 120 78 0-38 78-42-33 2-45Zm-58-41 16 86-34-24-7-49 25-13Zm243 85-54 65 81-2 23-45-50-18Zm16-117 42-62-37-73-44 48 39 87Z" fill="none" stroke="#050807" stroke-linecap="round" stroke-linejoin="round" stroke-width="12"/>
    <circle cx="22" cy="266" r="8" fill="#12d8cf"/>
    <circle cx="46" cy="266" r="8" fill="#12d8cf"/>
    <circle cx="70" cy="266" r="8" fill="#12d8cf"/>
  </g>
  <text x="256" y="408" fill="#ffffff" font-family="Arial, Helvetica, sans-serif" font-size="70" font-weight="700" letter-spacing="2" text-anchor="middle">OFFSIDE</text>
  <text x="256" y="462" fill="#12d8cf" font-family="Arial, Helvetica, sans-serif" font-size="48" font-weight="700" letter-spacing="10" text-anchor="middle">CLUB</text>
</svg>
