<svg xmlns="http://www.w3.org/2000/svg" viewBox="0 0 1280 720" role="img" aria-labelledby="title desc">
  <title id="title">Offside Club modal hero</title>
  <desc id="desc">Dark promotional banner for Offside Club with centered logo and headline.</desc>
  <defs>
    <linearGradient id="panelGlow" x1="0%" y1="0%" x2="100%" y2="100%">
      <stop offset="0%" stop-color="#08231f"/>
      <stop offset="100%" stop-color="#031210"/>
    </linearGradient>
    <linearGradient id="accent" x1="0%" y1="0%" x2="100%" y2="100%">
      <stop offset="0%" stop-color="#d8fbf8"/>
      <stop offset="60%" stop-color="#43ece2"/>
      <stop offset="100%" stop-color="#10d3ca"/>
    </linearGradient>
    <filter id="softGlow" x="-20%" y="-20%" width="140%" height="140%">
      <feGaussianBlur stdDeviation="18" result="blur"/>
      <feColorMatrix in="blur" type="matrix"
        values="1 0 0 0 0
                0 1 0 0 0.85
                0 0 1 0 0.8
                0 0 0 0.22 0"/>
    </filter>
  </defs>

  <rect width="1280" height="720" fill="#020504"/>

  <g opacity="0.22" stroke="#0a201d" stroke-width="26" fill="none" stroke-linecap="square">
    <path d="M0 30H1280"/>
    <path d="M-30 120 120 -30"/>
    <path d="M120 120 -30 -30"/>
    <path d="M220 0V320"/>
    <path d="M110 210H350"/>
    <path d="M320 120 470 -30"/>
    <path d="M470 120 320 -30"/>
    <path d="M640 0V240"/>
    <path d="M760 120 910 -30"/>
    <path d="M910 120 760 -30"/>
    <path d="M980 0V220"/>
    <path d="M1120 120 1270 -30"/>
    <path d="M1270 120 1120 -30"/>
  </g>

  <rect x="492" y="114" width="296" height="438" rx="0" fill="url(#panelGlow)"/>
  <rect x="492" y="114" width="296" height="438" rx="0" fill="#08110e" opacity="0.28"/>

  <g filter="url(#softGlow)">
    <circle cx="640" cy="242" r="112" fill="#14d7ce" opacity="0.25"/>
  </g>

  <g transform="translate(544 168)">
    <rect x="12" y="0" width="24" height="138" rx="12" fill="#14d8cf"/>
    <rect x="60" y="-10" width="24" height="106" rx="12" fill="#14d8cf"/>
    <rect x="108" y="-22" width="24" height="74" rx="12" fill="#14d8cf"/>
    <rect x="156" y="-10" width="24" height="106" rx="12" fill="#14d8cf"/>
    <rect x="204" y="0" width="24" height="138" rx="12" fill="#14d8cf"/>

    <path d="M30 150c0-73 59-132 132-132s132 59 132 132-59 132-132 132S30 223 30 150Z" fill="#11d6cd"/>
    <path d="M72 92 135 68l52 39-30 61H92L72 92Z" fill="#defbf8"/>
    <path d="M72 92 43 134l14 73 35 28 32-67-32-76Z" fill="#f4ffff"/>
    <path d="M157 168 125 235l77 26 46-55-4-53-87 15Z" fill="#2ce0d7"/>
    <path d="M187 107 135 68l93-8 33 46-18 47-56-46Z" fill="#74efe7"/>
    <path d="M43 134 14 113l22-30 36 9-29 42Z" fill="#0cc7be"/>
    <path d="M248 206 289 221 270 259 202 261l46-55Z" fill="#0fd0c8"/>
    <path d="M228 60 261 34l32 20-32 52-33-46Z" fill="#0fcfc6"/>
    <path d="M36 83 28 43l48-21 59 46-63 24-36-9Z" fill="#060808"/>
    <path d="M72 92 43 134 72 92Zm63-24 52 39-30 61 87-15 18-47-33-46-93 8Zm-43 100h65l-32 67-35-28 2-39Zm-49-34 14 73-28-20-6-41 20-12Zm205 72-46 55 68-2 19-38-41-15Zm13-100 32-52-29-57-36 40 33 69Z"
      fill="none" stroke="#050807" stroke-linecap="round" stroke-linejoin="round" stroke-width="10"/>

    <circle cx="20" cy="219" r="6" fill="#14d8cf"/>
    <circle cx="40" cy="219" r="6" fill="#14d8cf"/>
    <circle cx="60" cy="219" r="6" fill="#14d8cf"/>
  </g>

  <text x="640" y="456" fill="#ffffff" font-family="Arial, Helvetica, sans-serif" font-size="78" font-weight="700" letter-spacing="2" text-anchor="middle">OFFSIDE</text>
  <text x="640" y="518" fill="#10d3ca" font-family="Arial, Helvetica, sans-serif" font-size="50" font-weight="700" letter-spacing="12" text-anchor="middle">CLUB</text>
  <text x="640" y="642" fill="#f4f7f7" font-family="Arial, Helvetica, sans-serif" font-size="58" font-weight="700" text-anchor="middle">
    La app predictiva sin apuestas donde tu eres protagonista
  </text>
</svg>
